<svg width="269" height="45" viewBox="0 0 269 45" fill="none" xmlns="http://www.w3.org/2000/svg">
<path d="M33 4.7C32.9 4.7 32.55 4.61667 31.95 4.45C31.3833 4.25 30.85 4.15 30.35 4.15C28.75 4.15 26.9333 4.23333 24.9 4.4C22.8667 4.56667 21.1833 4.8 19.85 5.1C19.95 6.7 20.0333 9.23333 20.1 12.7C20.2 16.1333 20.25 19.75 20.25 23.55C20.25 25.15 20.2167 26.9333 20.15 28.9C20.1167 30.8667 20.05 32.0833 19.95 32.55C19.8833 32.9167 19.65 33.2167 19.25 33.45C18.8833 33.6833 18.5 33.8 18.1 33.8C17.8667 33.8 17.6667 33.7 17.5 33.5C17.3333 33.3 17.25 33.0667 17.25 32.8L17.3 31.05C17.5 28.45 17.6 25.25 17.6 21.45C17.6 18.7167 17.5667 15.6 17.5 12.1C17.4333 8.56667 17.3667 6.38333 17.3 5.55C10.6333 6.28333 6.18333 6.96667 3.95 7.6C3.55 7.73333 3.1 7.8 2.6 7.8C2 7.8 1.41667 7.58333 0.85 7.15C0.283333 6.71667 0 6.25 0 5.75C0 5.41667 0.1 5.18333 0.3 5.05C0.5 4.88333 0.75 4.8 1.05 4.8C2.95 4.7 4.55 4.6 5.85 4.5C8.81667 4.23333 12.55 3.81666 17.05 3.25C17.05 2.21667 17.0667 1.48333 17.1 1.05C17.1667 0.616664 17.2833 0.399997 17.45 0.399997C18.0833 0.399997 18.65 0.649998 19.15 1.15C19.25 1.25 19.3333 1.51666 19.4 1.95C19.4667 2.35 19.5 2.61667 19.5 2.75C20.2333 2.71667 21.4333 2.55 23.1 2.25C26.7 1.68333 29.1667 1.4 30.5 1.4C32.1 1.4 33.1667 1.6 33.7 2C34.0667 2.26666 34.25 2.75 34.25 3.45C34.25 3.71667 34.1333 4 33.9 4.3C33.6667 4.56667 33.3667 4.7 33 4.7ZM39.4539 3.45C38.8872 3.45 38.3039 3.21667 37.7039 2.75C37.1372 2.28333 36.8539 1.9 36.8539 1.6C36.8539 1.23333 37.0206 0.883332 37.3539 0.549999C37.7206 0.216666 38.0872 0.049999 38.4539 0.049999C38.9539 0.216666 39.3706 0.483332 39.7039 0.849998C39.9706 1.11666 40.2706 1.46667 40.6039 1.9C40.9372 2.33333 41.1039 2.6 41.1039 2.7C41.1039 3.2 40.5539 3.45 39.4539 3.45ZM40.9539 35.15C40.4872 35.1167 40.1372 34.3667 39.9039 32.9C39.7039 31.4333 39.4872 28.65 39.2539 24.55C39.1206 21.85 39.0039 19.2167 38.9039 16.65C38.8039 14.05 38.7372 12.05 38.7039 10.65C38.7039 10.2833 38.7539 10.0167 38.8539 9.85C38.9872 9.65 39.2206 9.55 39.5539 9.55C40.3206 9.55 40.8039 9.86667 41.0039 10.5C41.2039 11.1333 41.3039 12.35 41.3039 14.15L41.2539 20.05C41.2539 23.4167 41.3539 26.1167 41.5539 28.15C41.5539 28.25 41.7039 29.3167 42.0039 31.35C42.2372 32.75 42.3539 33.6833 42.3539 34.15C42.3539 34.4833 42.2039 34.7333 41.9039 34.9C41.6372 35.1 41.3206 35.1833 40.9539 35.15ZM78.7926 34.95C78.1926 34.95 77.8926 34.65 77.8926 34.05C77.8926 27.3167 77.6759 22.1667 77.2426 18.6C76.8092 15 76.0592 13.2 74.9926 13.2C73.1926 13.2 70.5592 19.4833 67.0926 32.05V32.1C67.0926 32.5 66.9592 32.85 66.6926 33.15C66.4259 33.4167 66.0759 33.55 65.6426 33.55C65.0426 33.55 64.7426 33.25 64.7426 32.65C64.7426 31.3167 64.8092 29.25 64.9426 26.45C65.0759 23.3167 65.1426 20.85 65.1426 19.05C65.1426 16.55 65.0592 14.7833 64.8926 13.75C64.7592 12.6833 64.4426 12.15 63.9426 12.15C62.8092 12.15 61.3759 14.2333 59.6426 18.4C57.9092 22.5333 56.0926 27.4167 54.1926 33.05L53.7426 34.35C53.6092 34.6833 53.4092 34.9667 53.1426 35.2C52.9092 35.4333 52.6426 35.55 52.3426 35.55C51.9426 35.55 51.6759 35.5167 51.5426 35.45C51.4092 35.3833 51.3259 35.1833 51.2926 34.85C51.1259 33.2167 50.9926 31.0333 50.8926 28.3C50.8259 27.6 50.7592 26.45 50.6926 24.85C50.3592 19.2167 50.0592 15.4167 49.7926 13.45C49.5259 11.45 49.3926 10.3333 49.3926 10.1C49.3926 9.83333 49.5259 9.51667 49.7926 9.15C50.0592 8.78333 50.3092 8.6 50.5426 8.6C51.0759 8.6 51.5092 8.98333 51.8426 9.75C52.0092 10.1167 52.1926 11.5833 52.3926 14.15C52.5926 16.7167 52.7592 19.9 52.8926 23.7L53.1426 31.35C54.9759 25.6833 56.8759 20.55 58.8426 15.95C60.8092 11.3167 62.6092 9 64.2426 9C65.3426 9 66.0926 9.8 66.4926 11.4C66.8926 13 67.0926 15.3167 67.0926 18.35C67.0926 19.95 67.0592 22.25 66.9926 25.25L66.9426 27.55C68.3092 22.7833 69.6592 18.7833 70.9926 15.55C72.3592 12.3167 73.7259 10.7 75.0926 10.7C78.5259 10.7 80.2426 18.3 80.2426 33.5C80.2426 33.9 80.1092 34.2333 79.8426 34.5C79.5759 34.8 79.2259 34.95 78.7926 34.95ZM105.394 22C105.394 22.6 104.944 23.9167 104.044 25.95C103.177 27.9833 101.844 29.8667 100.044 31.6C98.2771 33.3333 96.0938 34.2 93.4938 34.2C91.3604 34.2 89.5771 33.5333 88.1438 32.2C86.7104 30.8667 85.9938 28.8167 85.9938 26.05C85.9938 23.45 86.5938 20.8833 87.7938 18.35C88.9938 15.7833 90.5604 13.7 92.4938 12.1C94.4271 10.4667 96.4271 9.65 98.4938 9.65C99.7271 9.65 100.76 9.93333 101.594 10.5C102.46 11.0333 102.894 11.8167 102.894 12.85C102.894 14.0167 102.227 15.15 100.894 16.25C99.5938 17.35 97.8938 18.3167 95.7938 19.15C93.6938 19.9833 91.5271 20.5833 89.2938 20.95C88.8938 22.4833 88.6938 23.9833 88.6938 25.45C88.6938 27.3833 89.1438 28.8833 90.0438 29.95C90.9771 31.0167 92.2938 31.55 93.9938 31.55C96.5604 31.55 98.6438 30.6333 100.244 28.8C101.844 26.9667 103.177 24.9 104.244 22.6C104.31 22.4667 104.427 22.2167 104.594 21.85C104.76 21.45 104.91 21.25 105.044 21.25C105.277 21.25 105.394 21.5 105.394 22ZM97.8938 11.7C96.6271 11.7 95.4104 12.1167 94.2438 12.95C93.0771 13.7833 92.0938 14.7833 91.2938 15.95C90.5271 17.1167 90.0271 18.15 89.7938 19.05C91.3271 18.8833 92.9438 18.45 94.6438 17.75C96.3438 17.05 97.7604 16.2833 98.8938 15.45C100.06 14.6167 100.644 13.9333 100.644 13.4C100.644 12.8667 100.36 12.45 99.7938 12.15C99.2604 11.85 98.6271 11.7 97.8938 11.7ZM125.337 16.9C124.937 19.8333 124.72 21.4833 124.687 21.85C124.254 25.95 123.937 29.0833 123.737 31.25C123.57 33.3833 123.487 35.3167 123.487 37.05C123.487 38.4833 123.587 39.6167 123.787 40.45C124.02 41.2833 124.254 41.9333 124.487 42.4C124.754 42.9 124.887 43.2 124.887 43.3C124.887 43.6 124.62 43.8667 124.087 44.1C123.554 44.3333 123.004 44.45 122.437 44.45C122.004 44.45 121.654 43.8667 121.387 42.7C121.154 41.5333 121.037 39.7167 121.037 37.25C121.037 35.3833 121.22 32.8667 121.587 29.7L122.337 22.8C121.437 24.5333 120.32 26.2 118.987 27.8C117.687 29.3667 116.337 30.15 114.937 30.15C113.637 30.15 112.47 29.0167 111.437 26.75C110.404 24.4833 109.587 21.9167 108.987 19.05C108.42 16.1833 108.137 14.0833 108.137 12.75C108.137 11.9167 108.387 11.5 108.887 11.5C109.62 11.5 110.087 12.1833 110.287 13.55C111.554 22.8167 113.32 27.45 115.587 27.45C116.487 27.45 117.27 27.1 117.937 26.4C118.637 25.6667 119.454 24.55 120.387 23.05C120.82 22.35 121.287 21.4167 121.787 20.25C122.287 19.0833 122.67 18.1167 122.937 17.35L123.287 12.3C123.354 11.5333 123.454 11 123.587 10.7C123.72 10.3667 123.987 10.2 124.387 10.2C124.72 10.2 125.054 10.4 125.387 10.8C125.72 11.1667 125.887 11.5333 125.887 11.9C125.887 12.6667 125.704 14.3333 125.337 16.9ZM173.583 20.1C173.416 21.9 173.099 23.8833 172.633 26.05C172.166 28.2167 171.599 30.0833 170.933 31.65C170.266 33.1833 169.583 33.95 168.883 33.95C168.449 33.95 167.949 33.2 167.383 31.7C166.816 30.2 166.083 28 165.183 25.1L164.333 22.3C163.733 20.3667 163.066 18.4167 162.333 16.45C161.599 14.45 161.033 13.0333 160.633 12.2L158.483 19.55C156.516 26.2833 155.083 30.9 154.183 33.4C154.149 33.4667 154.049 33.7 153.883 34.1C153.749 34.5333 153.499 34.85 153.133 35.05C152.766 35.2833 152.283 35.4 151.683 35.4C151.549 35.4 151.266 34.5333 150.833 32.8C150.433 31.0667 150.016 29.15 149.583 27.05C148.483 22.2833 147.899 19.7667 147.833 19.5C147.033 16.2333 146.366 13.7833 145.833 12.15C145.333 10.5167 144.883 9.53333 144.483 9.2C143.916 8.76667 143.633 8.3 143.633 7.8C143.633 7.56667 143.799 7.31667 144.133 7.05C144.499 6.75 144.916 6.6 145.383 6.6C145.783 6.6 146.099 6.63333 146.333 6.7C146.566 6.73333 146.749 6.86667 146.883 7.1C147.349 7.86666 148.249 11.1 149.583 16.8C149.716 17.2333 149.883 17.8833 150.083 18.75C150.783 21.65 151.366 24.15 151.833 26.25C152.099 27.3167 152.316 28.2833 152.483 29.15C152.683 29.9833 152.849 30.6167 152.983 31.05C153.016 30.75 153.349 29.5833 153.983 27.55C155.083 24.15 155.933 21.2667 156.533 18.9C157.166 16.5 157.749 14.5167 158.283 12.95C158.816 11.35 159.233 10.35 159.533 9.95C159.733 9.71666 159.999 9.51666 160.333 9.35C160.699 9.15 161.049 9.05 161.383 9.05C161.616 9.05 161.799 9.13333 161.933 9.3C162.066 9.43333 162.183 9.61667 162.283 9.85C162.383 10.0833 162.483 10.2833 162.583 10.45C162.916 11.1167 163.449 12.5167 164.183 14.65C164.949 16.7833 165.633 18.8833 166.233 20.95L166.933 23.25C167.999 26.95 168.783 29.4167 169.283 30.65C170.449 28.3167 171.249 24.4167 171.683 18.95C171.916 16.8833 172.033 13.9667 172.033 10.2L171.983 5.15C171.983 4.71667 172.033 4.41667 172.133 4.25C172.233 4.05 172.466 3.95 172.833 3.95C173.233 3.95 173.616 4.08333 173.983 4.35C174.349 4.58333 174.533 4.85 174.533 5.15C174.533 7.55 174.433 10.1167 174.233 12.85C174.033 15.5833 173.816 18 173.583 20.1ZM182.032 3.45C181.465 3.45 180.882 3.21667 180.282 2.75C179.715 2.28333 179.432 1.9 179.432 1.6C179.432 1.23333 179.599 0.883332 179.932 0.549999C180.299 0.216666 180.665 0.049999 181.032 0.049999C181.532 0.216666 181.949 0.483332 182.282 0.849998C182.549 1.11666 182.849 1.46667 183.182 1.9C183.515 2.33333 183.682 2.6 183.682 2.7C183.682 3.2 183.132 3.45 182.032 3.45ZM183.532 35.15C183.065 35.1167 182.715 34.3667 182.482 32.9C182.282 31.4333 182.065 28.65 181.832 24.55C181.699 21.85 181.582 19.2167 181.482 16.65C181.382 14.05 181.315 12.05 181.282 10.65C181.282 10.2833 181.332 10.0167 181.432 9.85C181.565 9.65 181.799 9.55 182.132 9.55C182.899 9.55 183.382 9.86667 183.582 10.5C183.782 11.1333 183.882 12.35 183.882 14.15L183.832 20.05C183.832 23.4167 183.932 26.1167 184.132 28.15C184.132 28.25 184.282 29.3167 184.582 31.35C184.815 32.75 184.932 33.6833 184.932 34.15C184.932 34.4833 184.782 34.7333 184.482 34.9C184.215 35.1 183.899 35.1833 183.532 35.15ZM221.371 34.95C220.771 34.95 220.471 34.65 220.471 34.05C220.471 27.3167 220.254 22.1667 219.821 18.6C219.387 15 218.637 13.2 217.571 13.2C215.771 13.2 213.137 19.4833 209.671 32.05V32.1C209.671 32.5 209.537 32.85 209.271 33.15C209.004 33.4167 208.654 33.55 208.221 33.55C207.621 33.55 207.321 33.25 207.321 32.65C207.321 31.3167 207.387 29.25 207.521 26.45C207.654 23.3167 207.721 20.85 207.721 19.05C207.721 16.55 207.637 14.7833 207.471 13.75C207.337 12.6833 207.021 12.15 206.521 12.15C205.387 12.15 203.954 14.2333 202.221 18.4C200.487 22.5333 198.671 27.4167 196.771 33.05L196.321 34.35C196.187 34.6833 195.987 34.9667 195.721 35.2C195.487 35.4333 195.221 35.55 194.921 35.55C194.521 35.55 194.254 35.5167 194.121 35.45C193.987 35.3833 193.904 35.1833 193.871 34.85C193.704 33.2167 193.571 31.0333 193.471 28.3C193.404 27.6 193.337 26.45 193.271 24.85C192.937 19.2167 192.637 15.4167 192.371 13.45C192.104 11.45 191.971 10.3333 191.971 10.1C191.971 9.83333 192.104 9.51667 192.371 9.15C192.637 8.78333 192.887 8.6 193.121 8.6C193.654 8.6 194.087 8.98333 194.421 9.75C194.587 10.1167 194.771 11.5833 194.971 14.15C195.171 16.7167 195.337 19.9 195.471 23.7L195.721 31.35C197.554 25.6833 199.454 20.55 201.421 15.95C203.387 11.3167 205.187 9 206.821 9C207.921 9 208.671 9.8 209.071 11.4C209.471 13 209.671 15.3167 209.671 18.35C209.671 19.95 209.637 22.25 209.571 25.25L209.521 27.55C210.887 22.7833 212.237 18.7833 213.571 15.55C214.937 12.3167 216.304 10.7 217.671 10.7C221.104 10.7 222.821 18.3 222.821 33.5C222.821 33.9 222.687 34.2333 222.421 34.5C222.154 34.8 221.804 34.95 221.371 34.95ZM247.972 22C247.972 22.6 247.522 23.9167 246.622 25.95C245.755 27.9833 244.422 29.8667 242.622 31.6C240.855 33.3333 238.672 34.2 236.072 34.2C233.939 34.2 232.155 33.5333 230.722 32.2C229.289 30.8667 228.572 28.8167 228.572 26.05C228.572 23.45 229.172 20.8833 230.372 18.35C231.572 15.7833 233.139 13.7 235.072 12.1C237.005 10.4667 239.005 9.65 241.072 9.65C242.305 9.65 243.339 9.93333 244.172 10.5C245.039 11.0333 245.472 11.8167 245.472 12.85C245.472 14.0167 244.805 15.15 243.472 16.25C242.172 17.35 240.472 18.3167 238.372 19.15C236.272 19.9833 234.105 20.5833 231.872 20.95C231.472 22.4833 231.272 23.9833 231.272 25.45C231.272 27.3833 231.722 28.8833 232.622 29.95C233.555 31.0167 234.872 31.55 236.572 31.55C239.139 31.55 241.222 30.6333 242.822 28.8C244.422 26.9667 245.755 24.9 246.822 22.6C246.889 22.4667 247.005 22.2167 247.172 21.85C247.339 21.45 247.489 21.25 247.622 21.25C247.855 21.25 247.972 21.5 247.972 22ZM240.472 11.7C239.205 11.7 237.989 12.1167 236.822 12.95C235.655 13.7833 234.672 14.7833 233.872 15.95C233.105 17.1167 232.605 18.15 232.372 19.05C233.905 18.8833 235.522 18.45 237.222 17.75C238.922 17.05 240.339 16.2833 241.472 15.45C242.639 14.6167 243.222 13.9333 243.222 13.4C243.222 12.8667 242.939 12.45 242.372 12.15C241.839 11.85 241.205 11.7 240.472 11.7ZM267.915 16.9C267.515 19.8333 267.299 21.4833 267.265 21.85C266.832 25.95 266.515 29.0833 266.315 31.25C266.149 33.3833 266.065 35.3167 266.065 37.05C266.065 38.4833 266.165 39.6167 266.365 40.45C266.599 41.2833 266.832 41.9333 267.065 42.4C267.332 42.9 267.465 43.2 267.465 43.3C267.465 43.6 267.199 43.8667 266.665 44.1C266.132 44.3333 265.582 44.45 265.015 44.45C264.582 44.45 264.232 43.8667 263.965 42.7C263.732 41.5333 263.615 39.7167 263.615 37.25C263.615 35.3833 263.799 32.8667 264.165 29.7L264.915 22.8C264.015 24.5333 262.899 26.2 261.565 27.8C260.265 29.3667 258.915 30.15 257.515 30.15C256.215 30.15 255.049 29.0167 254.015 26.75C252.982 24.4833 252.165 21.9167 251.565 19.05C250.999 16.1833 250.715 14.0833 250.715 12.75C250.715 11.9167 250.965 11.5 251.465 11.5C252.199 11.5 252.665 12.1833 252.865 13.55C254.132 22.8167 255.899 27.45 258.165 27.45C259.065 27.45 259.849 27.1 260.515 26.4C261.215 25.6667 262.032 24.55 262.965 23.05C263.399 22.35 263.865 21.4167 264.365 20.25C264.865 19.0833 265.249 18.1167 265.515 17.35L265.865 12.3C265.932 11.5333 266.032 11 266.165 10.7C266.299 10.3667 266.565 10.2 266.965 10.2C267.299 10.2 267.632 10.4 267.965 10.8C268.299 11.1667 268.465 11.5333 268.465 11.9C268.465 12.6667 268.282 14.3333 267.915 16.9Z" fill="black"/>
</svg>
