<svg width="30" height="38" viewBox="0 0 30 38" fill="none" xmlns="http://www.w3.org/2000/svg">
<path d="M25.762 4.44472H19.9873C19.6992 1.94679 17.5739 0 15 0C12.4261 0 10.3011 1.94671 10.013 4.44472H4.23801C1.90104 4.44472 0 6.34629 0 8.6832V8.90067C0 10.6865 1.11197 12.215 2.67841 12.8378V32.8601C2.67841 35.1971 4.57968 37.0986 6.91651 37.0986H23.0836C25.4205 37.0986 27.3216 35.1969 27.3216 32.8601V12.8379C28.888 12.215 30 10.6865 30 8.90074V8.68327C30 6.34629 28.0988 4.44472 25.762 4.44472ZM15 2.01008C16.4639 2.01008 17.6858 3.05937 17.9562 4.44472H12.0442C12.3146 3.0593 13.5366 2.01008 15 2.01008ZM25.3115 32.8601C25.3115 34.0888 24.3118 35.0886 23.0835 35.0886H6.91643C5.68811 35.0886 4.68842 34.0887 4.68842 32.8601V13.1391H25.3115V32.8601ZM27.9899 8.90067C27.9899 10.1294 26.9902 11.1291 25.7619 11.1291H4.23801C3.0097 11.1291 2.01 10.1294 2.01 8.90067V8.6832C2.01 7.45449 3.0097 6.45472 4.23801 6.45472H25.762C26.9903 6.45472 27.99 7.45449 27.99 8.6832L27.9899 8.90067Z" fill="white"/>
<path d="M9.61157 32.518C10.1666 32.518 10.6166 32.0679 10.6166 31.5131V20.197C10.6166 19.6421 10.1666 19.1919 9.61157 19.1919C9.05658 19.1919 8.60657 19.6421 8.60657 20.197V31.5131C8.60649 32.0681 9.05651 32.518 9.61157 32.518Z" fill="white"/>
<path d="M15 32.518C15.5551 32.518 16.0051 32.0679 16.0051 31.5131V20.197C16.0051 19.6421 15.5549 19.1919 15 19.1919C14.445 19.1919 13.995 19.6421 13.995 20.197V31.5131C13.995 32.0681 14.4449 32.518 15 32.518Z" fill="white"/>
<path d="M20.3883 32.518C20.9432 32.518 21.3932 32.0679 21.3932 31.5131V20.197C21.3932 19.6421 20.9432 19.1919 20.3883 19.1919C19.8331 19.1919 19.3832 19.6421 19.3832 20.197V31.5131C19.3831 32.0681 19.8333 32.518 20.3883 32.518Z" fill="white"/>
</svg>
