<svg width="20" height="21" viewBox="0 0 20 21" fill="none" xmlns="http://www.w3.org/2000/svg">
<g clip-path="url(#clip0_1_169)">
<path d="M2.7245 10.0406C2.7245 10.4019 2.58098 10.7484 2.32551 11.0039C2.07003 11.2593 1.72354 11.4029 1.36225 11.4029C1.00096 11.4029 0.654465 11.2593 0.398994 11.0039C0.143522 10.7484 0 10.4019 0 10.0406C0.000754751 8.13416 0.546637 6.26769 1.57328 4.66129C2.59991 3.05488 4.06449 1.77554 5.79431 0.974123C7.52412 0.172707 9.44703 -0.117362 11.3363 0.138124C13.2255 0.393609 15.0023 1.18399 16.4571 2.41607V1.35541C16.4571 0.994123 16.6007 0.647629 16.8561 0.392158C17.1116 0.136686 17.4581 -0.00683594 17.8194 -0.00683594C18.1807 -0.00683594 18.5272 0.136686 18.7826 0.392158C19.0381 0.647629 19.1816 0.994123 19.1816 1.35541V5.65057C19.1816 6.01006 19.0388 6.35483 18.7846 6.60903C18.5304 6.86323 18.1857 7.00604 17.8262 7.00604L13.6937 7.39066C13.5162 7.40668 13.3374 7.38759 13.1673 7.33448C12.9972 7.28138 12.8393 7.1953 12.7025 7.08115C12.5657 6.967 12.4527 6.82703 12.37 6.66922C12.2873 6.51141 12.2365 6.33886 12.2204 6.16141C12.2044 5.98396 12.2235 5.8051 12.2766 5.63503C12.3297 5.46496 12.4158 5.30701 12.5299 5.17021C12.6441 5.03341 12.7841 4.92043 12.9419 4.83772C13.0997 4.75502 13.2722 4.7042 13.4497 4.68818L14.8052 4.5645C13.7521 3.64402 12.4565 3.04608 11.0728 2.84209C9.68917 2.63809 8.27604 2.83667 7.0022 3.41409C5.72836 3.99152 4.64764 4.92339 3.88911 6.09843C3.13057 7.27347 2.72627 8.642 2.7245 10.0406ZM6.58251 13.3615C6.94201 13.3292 7.29963 13.4409 7.57671 13.6723C7.85379 13.9036 8.02763 14.2355 8.05998 14.595C8.09233 14.9545 7.98055 15.3121 7.74923 15.5892C7.51791 15.8663 7.18599 16.0401 6.8265 16.0725L5.1186 16.2266C6.16346 17.1734 7.46087 17.7963 8.8531 18.0195C10.2453 18.2427 11.6724 18.0567 12.9609 17.4839C14.2494 16.9112 15.3437 15.9765 16.1109 14.7935C16.878 13.6105 17.285 12.23 17.2823 10.82C17.2823 10.4587 17.4258 10.1122 17.6813 9.85674C17.9367 9.60127 18.2832 9.45775 18.6445 9.45775C19.0058 9.45775 19.3523 9.60127 19.6078 9.85674C19.8633 10.1122 20.0068 10.4587 20.0068 10.82C20.007 12.7017 19.4761 14.5453 18.4752 16.1387C17.4743 17.7321 16.0439 19.0107 14.3487 19.8273C12.6534 20.644 10.7621 20.9656 8.89216 20.7551C7.02225 20.5447 5.24971 19.8107 3.77838 18.6377V19.3459C3.77838 19.7072 3.63486 20.0537 3.37939 20.3092C3.12391 20.5647 2.77742 20.7082 2.41613 20.7082C2.05484 20.7082 1.70835 20.5647 1.45287 20.3092C1.1974 20.0537 1.05388 19.7072 1.05388 19.3459V15.1033C1.05254 14.7637 1.17872 14.436 1.40745 14.185C1.63618 13.934 1.9508 13.778 2.28905 13.7478L6.57743 13.3581L6.58251 13.3615Z" fill="white"/>
</g>
<defs>
<clipPath id="clip0_1_169">
<rect width="20" height="20.8201" fill="white"/>
</clipPath>
</defs>
</svg>
