<svg width="40" height="37" viewBox="0 0 40 37" fill="none" xmlns="http://www.w3.org/2000/svg">
<path fill-rule="evenodd" clip-rule="evenodd" d="M32.7133 29.7778H38.6596C39.3974 29.7778 39.9946 30.3751 39.9929 31.1112C39.9929 31.8473 39.3956 32.4445 38.6596 32.4445H32.7133C32.1213 34.7431 30.0397 36.4445 27.5556 36.4445C25.0714 36.4445 22.9915 34.7431 22.3978 32.4445H1.33333C0.597245 32.4445 0 31.8473 0 31.1112C0 30.3751 0.597245 29.7778 1.33333 29.7778H22.3978C22.9898 27.4792 25.0714 25.7778 27.5556 25.7778C30.0397 25.7778 32.1196 27.4792 32.7133 29.7778ZM24.8889 31.1111C24.8889 32.5816 26.0851 33.7778 27.5556 33.7778C29.0261 33.7778 30.2222 32.5816 30.2222 31.1111C30.2222 29.6406 29.0261 28.4444 27.5556 28.4444C26.0851 28.4444 24.8889 29.6406 24.8889 31.1111Z" fill="#A1B0CA"/>
<path fill-rule="evenodd" clip-rule="evenodd" d="M18.4911 16.8888H38.6667C39.4028 16.8888 40 17.486 40 18.2221C40 18.9582 39.4028 19.5555 38.6667 19.5555H18.4911C17.8991 21.8541 15.8175 23.5555 13.3333 23.5555C10.8492 23.5555 8.76929 21.8541 8.17556 19.5555H1.33333C0.597244 19.5555 0 18.9582 0 18.2221C0 17.486 0.597244 16.8888 1.33333 16.8888H8.17556C8.76756 14.5902 10.8492 12.8888 13.3333 12.8888C15.8175 12.8888 17.8974 14.5902 18.4911 16.8888ZM10.6667 18.2221C10.6667 19.6926 11.8629 20.8888 13.3334 20.8888C14.8039 20.8888 16 19.6926 16 18.2221C16 16.7516 14.8039 15.5554 13.3334 15.5554C11.8629 15.5554 10.6667 16.7516 10.6667 18.2221Z" fill="#A1B0CA"/>
<path fill-rule="evenodd" clip-rule="evenodd" d="M22.3978 6.66667H1.33333C0.597244 6.66667 0 6.06942 0 5.33333C0 4.59724 0.597244 4 1.33333 4H22.3978C22.9898 1.70138 25.0714 0 27.5556 0C30.0397 0 32.1213 1.70138 32.7133 4H38.6667C39.4028 4 40 4.59724 40 5.33333C40 6.06942 39.4028 6.66667 38.6667 6.66667H32.7133C32.1213 8.96529 30.0397 10.6667 27.5556 10.6667C25.0714 10.6667 22.9915 8.96529 22.3978 6.66667ZM30.2222 5.33329C30.2222 3.8628 29.0261 2.66663 27.5556 2.66663C26.0851 2.66663 24.8889 3.8628 24.8889 5.33329C24.8889 6.80378 26.0851 7.99996 27.5556 7.99996C29.0261 7.99996 30.2222 6.80378 30.2222 5.33329Z" fill="#A1B0CA"/>
</svg>
