<svg width="30" height="31" viewBox="0 0 30 31" fill="none" xmlns="http://www.w3.org/2000/svg">
<path opacity="0.4" d="M23.9464 20.8308C23.8393 20.8308 23.7857 20.8308 23.6786 20.8308H7.125C7.07143 20.8308 6.96429 20.8308 6.91071 20.8308C6.21429 20.8308 5.625 20.2415 5.625 19.545C5.625 18.8486 6.21429 18.2593 6.91071 18.2593C7.5 18.2593 8.03571 18.6879 8.14286 19.2772L8.89286 18.9022C8.625 18.5272 8.51786 18.0986 8.51786 17.6165C8.51786 16.3308 9.58929 15.2593 10.875 15.2593C11.5179 15.2593 12.1607 15.5272 12.5893 16.0093C12.5893 15.9022 12.5893 15.7415 12.5893 15.6343C12.5893 13.2236 14.5179 11.295 16.9286 11.295C19.3393 11.295 21.2679 13.2236 21.2679 15.6343C21.2679 16.4379 21.0536 17.1879 20.6786 17.7772L21.6429 18.2058C21.8036 17.0808 22.7679 16.2236 23.9464 16.2236C25.2321 16.2236 26.25 17.2415 26.25 18.5272C26.25 19.8129 25.2321 20.8308 23.9464 20.8308Z" fill="white"/>
<path d="M6.85721 7.54504L4.23221 4.92004L3.58936 5.5629L6.21436 8.1879C6.42864 7.97362 6.64293 7.75933 6.85721 7.54504Z" fill="white"/>
<path d="M13.125 6.3129L14.0357 2.88433L13.1785 2.67004L12.2678 6.15219C12.5357 6.15219 12.8035 6.20576 13.125 6.3129Z" fill="white"/>
<path d="M15.9644 8.24147L18.643 5.5629L18.0001 4.92004L15.3215 7.59861C15.5358 7.8129 15.7501 8.02719 15.9644 8.24147Z" fill="white"/>
<path d="M4.98204 10.3307L1.39275 9.36646L1.17847 10.2236L4.76775 11.1879C4.82132 10.92 4.92847 10.5986 4.98204 10.3307Z" fill="white"/>
<path d="M9.85707 6.09869L8.89279 2.5094L8.03564 2.72369L8.99993 6.31297C9.32136 6.2594 9.58922 6.15226 9.85707 6.09869Z" fill="white"/>
<path d="M4.76775 13.7058L1.17847 14.6701L1.39275 15.5272L4.98204 14.563C4.92847 14.2415 4.82132 13.9737 4.76775 13.7058Z" fill="white"/>
<path d="M12.9643 9.20574C13.1786 9.31288 13.3929 9.47359 13.5536 9.63431C13.9821 9.42002 14.4107 9.20574 14.8929 9.04502C14.5179 8.67002 14.1429 8.29502 13.6607 8.02717C11.25 6.63431 8.08928 7.43788 6.69643 9.90217C5.73214 11.5629 5.83928 13.5986 6.75 15.0986C7.01786 14.67 7.33928 14.295 7.66071 13.9736C7.17857 12.9022 7.23214 11.67 7.82143 10.5986C8.89286 8.77717 11.1964 8.18788 12.9643 9.20574Z" fill="white"/>
<path d="M23.8929 14.563C23.5179 14.563 23.1965 14.6165 22.8215 14.7237C22.3929 11.8308 19.9286 9.58081 16.9286 9.58081C14.3036 9.58081 12.1072 11.2415 11.2501 13.5987C11.1429 13.5987 11.0358 13.5987 10.8751 13.5987C9.00007 13.5987 7.4465 14.8844 7.01793 16.6522H6.91078C5.25007 16.6522 3.96436 17.9915 3.96436 19.5987C3.96436 21.2058 5.25007 22.5451 6.91078 22.5451H23.7858H23.8929C26.0893 22.5451 27.9108 20.7772 27.9108 18.5272C27.9108 16.2772 26.1429 14.563 23.8929 14.563ZM23.9465 20.8308C23.8394 20.8308 23.7858 20.8308 23.6786 20.7772H7.12507C7.0715 20.7772 6.96435 20.7772 6.91078 20.7772C6.21435 20.7772 5.62507 20.188 5.62507 19.4915C5.62507 18.7951 6.21435 18.2058 6.91078 18.2058C7.50007 18.2058 8.03578 18.6344 8.14293 19.2237L8.89293 18.8487C8.62507 18.4737 8.51793 18.0451 8.51793 17.563C8.51793 16.2772 9.58935 15.2058 10.8751 15.2058C11.5179 15.2058 12.1608 15.4737 12.5894 15.9558C12.5894 15.8487 12.5894 15.688 12.5894 15.5808C12.5894 13.1701 14.5179 11.2415 16.9286 11.2415C19.3394 11.2415 21.2679 13.1701 21.2679 15.5808C21.2679 16.3844 21.0536 17.1344 20.6786 17.7237L21.6429 18.1522C21.8036 17.0272 22.7679 16.1701 23.9465 16.1701C25.2322 16.1701 26.2501 17.188 26.2501 18.4737C26.2501 19.7594 25.2322 20.8308 23.9465 20.8308Z" fill="white"/>
</svg>
