<svg width="20" height="21" viewBox="0 0 20 21" fill="none" xmlns="http://www.w3.org/2000/svg">
<g clip-path="url(#clip0_1_355)">
<path d="M4.45868 9.01597L2.4104 9.86089L3.01391 11.5471L5.06219 10.7021C5.545 11.5471 6.26556 12.1469 6.98977 12.6297L6.14485 14.678L7.83103 15.2815L8.67595 13.2332C9.15875 13.3539 9.52086 13.3539 10 13.3539C10.4792 13.3539 10.9656 13.2332 11.3241 13.1125L12.169 15.1608L13.7345 14.5573L12.8896 12.509C13.7345 12.0262 14.3343 11.4264 14.8171 10.5814L16.8654 11.4264L17.4689 9.86089L15.4206 9.01597C15.662 8.17105 15.662 7.20909 15.4206 6.24348L17.5896 5.51926L16.9861 3.95379L14.9378 4.79871C14.455 3.95379 13.7345 3.35394 13.0103 2.87113L13.8552 0.702144L12.2897 0.0986328L11.4448 2.14691C10.962 2.02621 10.5999 2.02621 10.1207 2.02621C9.5172 2.02621 9.03805 2.02621 8.67595 2.14691L7.83103 0.0986328L6.14485 0.702144L6.98977 2.75043C6.26556 3.23323 5.6657 3.95379 5.18289 4.678L3.01391 3.83309L2.4104 5.51926L4.45868 6.36418C4.21728 7.20909 4.21728 8.17105 4.45868 9.01597ZM6.26556 6.12277C6.62767 5.15716 7.46892 4.3159 8.43454 3.95379C8.91735 3.71239 9.40016 3.59168 10 3.59168C11.5655 3.59168 13.0139 4.5573 13.7345 6.00207C14.0966 6.96769 14.0966 8.05035 13.7345 9.01597C13.3724 9.98159 12.5311 10.8228 11.5655 11.185C9.5172 12.0299 7.22752 11.0643 6.38626 9.01597C5.90345 8.17105 5.90345 7.08839 6.26556 6.12277Z" fill="white"/>
<path d="M0 19.0159L0.603511 20.5814C6.62765 18.0503 13.376 18.0503 19.4001 20.5814L20.0037 19.0159C13.6138 16.3642 6.38625 16.3642 0 19.0159Z" fill="white"/>
</g>
<defs>
<clipPath id="clip0_1_355">
<rect width="20" height="20.4828" fill="white" transform="translate(0 0.0986328)"/>
</clipPath>
</defs>
</svg>
