<svg width="0" height="0" class="hidden">
  <symbol fill="none" xmlns="http://www.w3.org/2000/svg" viewBox="0 0 20 20" id="icon-add">
    <path fill-rule="evenodd" clip-rule="evenodd" d="M10 0C9.68414 0 9.42857 0.25558 9.42857 0.571429V9.42857H0.571429C0.255571 9.42857 0 9.68415 0 10C0 10.3158 0.25558 10.5714 0.571429 10.5714H9.42857V19.4286C9.42857 19.7444 9.68415 20 10 20C10.3158 20 10.5714 19.7444 10.5714 19.4286V10.5714H19.4286C19.7444 10.5714 20 10.3158 20 10C20 9.68415 19.7444 9.42857 19.4286 9.42857H10.5714V0.571429C10.5714 0.255571 10.3158 0 10 0Z" fill="white"></path>
  </symbol>
  <symbol fill="none" xmlns="http://www.w3.org/2000/svg" viewBox="0 0 30 38" id="icon-delete">
    <path d="M25.762 4.44472H19.9873C19.6992 1.94679 17.5739 0 15 0C12.4261 0 10.3011 1.94671 10.013 4.44472H4.23801C1.90104 4.44472 0 6.34629 0 8.6832V8.90067C0 10.6865 1.11197 12.215 2.67841 12.8378V32.8601C2.67841 35.1971 4.57968 37.0986 6.91651 37.0986H23.0836C25.4205 37.0986 27.3216 35.1969 27.3216 32.8601V12.8379C28.888 12.215 30 10.6865 30 8.90074V8.68327C30 6.34629 28.0988 4.44472 25.762 4.44472ZM15 2.01008C16.4639 2.01008 17.6858 3.05937 17.9562 4.44472H12.0442C12.3146 3.0593 13.5366 2.01008 15 2.01008ZM25.3115 32.8601C25.3115 34.0888 24.3118 35.0886 23.0835 35.0886H6.91643C5.68811 35.0886 4.68842 34.0887 4.68842 32.8601V13.1391H25.3115V32.8601ZM27.9899 8.90067C27.9899 10.1294 26.9902 11.1291 25.7619 11.1291H4.23801C3.0097 11.1291 2.01 10.1294 2.01 8.90067V8.6832C2.01 7.45449 3.0097 6.45472 4.23801 6.45472H25.762C26.9903 6.45472 27.99 7.45449 27.99 8.6832L27.9899 8.90067Z" fill="white"></path>
    <path d="M9.61157 32.518C10.1666 32.518 10.6166 32.0679 10.6166 31.5131V20.197C10.6166 19.6421 10.1666 19.1919 9.61157 19.1919C9.05658 19.1919 8.60657 19.6421 8.60657 20.197V31.5131C8.60649 32.0681 9.05651 32.518 9.61157 32.518Z" fill="white"></path>
    <path d="M15 32.518C15.5551 32.518 16.0051 32.0679 16.0051 31.5131V20.197C16.0051 19.6421 15.5549 19.1919 15 19.1919C14.445 19.1919 13.995 19.6421 13.995 20.197V31.5131C13.995 32.0681 14.4449 32.518 15 32.518Z" fill="white"></path>
    <path d="M20.3883 32.518C20.9432 32.518 21.3932 32.0679 21.3932 31.5131V20.197C21.3932 19.6421 20.9432 19.1919 20.3883 19.1919C19.8331 19.1919 19.3832 19.6421 19.3832 20.197V31.5131C19.3831 32.0681 19.8333 32.518 20.3883 32.518Z" fill="white"></path>
  </symbol>
  <symbol fill="none" xmlns="http://www.w3.org/2000/svg" viewBox="0 0 30 31" id="icon-note">
    <g clip-path="url(#clip0_1_301)">
      <path d="M23.4187 28.6827H1.8562V5.24524H15.0281L16.9237 3.41899L16.875 3.37024H1.8562C0.820264 3.37024 -0.0187988 4.21024 -0.0187988 5.24524V28.6827C-0.0187988 29.7187 0.820264 30.5577 1.8562 30.5577H23.4187C24.4546 30.5577 25.2937 29.7187 25.2937 28.6827V14.9521L23.4187 16.7418V28.6818V28.6827ZM28.5421 1.76336C27.6965 0.952426 26.7628 0.540863 25.7662 0.540863C24.2071 0.540863 23.07 1.54774 22.7606 1.85618C22.3218 2.2893 9.89433 14.699 9.89433 14.699C9.79683 14.7984 9.72558 14.9193 9.68902 15.0552C9.35245 16.2984 7.66495 21.8221 7.64902 21.8774C7.56183 22.1606 7.63964 22.469 7.8487 22.6752C7.99776 22.8252 8.19839 22.9049 8.40277 22.9049C8.48339 22.9049 8.56402 22.8937 8.6437 22.8684C8.70089 22.8496 14.4009 21.0065 15.3384 20.7262C15.4621 20.6896 15.5746 20.6231 15.6675 20.5321C16.259 19.9481 27.6825 8.70274 28.6068 7.74743C29.5631 6.76118 30.0375 5.73555 30.0196 4.69774C30.0018 3.67211 29.504 2.68493 28.5431 1.7643L28.5421 1.76336ZM27.2587 6.44149C26.7375 6.97961 22.6518 11.0165 15.1162 18.4396L14.5396 19.0087C13.6762 19.2759 11.6071 19.9406 10.0434 20.4449C10.5468 18.7827 11.1506 16.7737 11.4206 15.824C13.0303 14.2162 23.6784 3.58493 24.0825 3.18649C24.1612 3.10774 24.8803 2.4168 25.7653 2.4168C26.2678 2.4168 26.7525 2.64555 27.2437 3.11805C27.8315 3.68243 28.1343 4.22336 28.1428 4.73055C28.1521 5.2518 27.854 5.82836 27.2587 6.44336V6.44149Z" fill="white"></path>
    </g>
    <defs>
      <clipPath id="clip0_1_301">
        <rect width="30" height="30" fill="white" transform="translate(0 0.549286)"></rect>
      </clipPath>
    </defs>
  </symbol>
  <symbol fill="none" xmlns="http://www.w3.org/2000/svg" viewBox="0 0 20 21" id="icon-reload">
    <g clip-path="url(#clip0_1_169)">
      <path d="M2.7245 10.0406C2.7245 10.4019 2.58098 10.7484 2.32551 11.0039C2.07003 11.2593 1.72354 11.4029 1.36225 11.4029C1.00096 11.4029 0.654465 11.2593 0.398994 11.0039C0.143522 10.7484 0 10.4019 0 10.0406C0.000754751 8.13416 0.546637 6.26769 1.57328 4.66129C2.59991 3.05488 4.06449 1.77554 5.79431 0.974123C7.52412 0.172707 9.44703 -0.117362 11.3363 0.138124C13.2255 0.393609 15.0023 1.18399 16.4571 2.41607V1.35541C16.4571 0.994123 16.6007 0.647629 16.8561 0.392158C17.1116 0.136686 17.4581 -0.00683594 17.8194 -0.00683594C18.1807 -0.00683594 18.5272 0.136686 18.7826 0.392158C19.0381 0.647629 19.1816 0.994123 19.1816 1.35541V5.65057C19.1816 6.01006 19.0388 6.35483 18.7846 6.60903C18.5304 6.86323 18.1857 7.00604 17.8262 7.00604L13.6937 7.39066C13.5162 7.40668 13.3374 7.38759 13.1673 7.33448C12.9972 7.28138 12.8393 7.1953 12.7025 7.08115C12.5657 6.967 12.4527 6.82703 12.37 6.66922C12.2873 6.51141 12.2365 6.33886 12.2204 6.16141C12.2044 5.98396 12.2235 5.8051 12.2766 5.63503C12.3297 5.46496 12.4158 5.30701 12.5299 5.17021C12.6441 5.03341 12.7841 4.92043 12.9419 4.83772C13.0997 4.75502 13.2722 4.7042 13.4497 4.68818L14.8052 4.5645C13.7521 3.64402 12.4565 3.04608 11.0728 2.84209C9.68917 2.63809 8.27604 2.83667 7.0022 3.41409C5.72836 3.99152 4.64764 4.92339 3.88911 6.09843C3.13057 7.27347 2.72627 8.642 2.7245 10.0406ZM6.58251 13.3615C6.94201 13.3292 7.29963 13.4409 7.57671 13.6723C7.85379 13.9036 8.02763 14.2355 8.05998 14.595C8.09233 14.9545 7.98055 15.3121 7.74923 15.5892C7.51791 15.8663 7.18599 16.0401 6.8265 16.0725L5.1186 16.2266C6.16346 17.1734 7.46087 17.7963 8.8531 18.0195C10.2453 18.2427 11.6724 18.0567 12.9609 17.4839C14.2494 16.9112 15.3437 15.9765 16.1109 14.7935C16.878 13.6105 17.285 12.23 17.2823 10.82C17.2823 10.4587 17.4258 10.1122 17.6813 9.85674C17.9367 9.60127 18.2832 9.45775 18.6445 9.45775C19.0058 9.45775 19.3523 9.60127 19.6078 9.85674C19.8633 10.1122 20.0068 10.4587 20.0068 10.82C20.007 12.7017 19.4761 14.5453 18.4752 16.1387C17.4743 17.7321 16.0439 19.0107 14.3487 19.8273C12.6534 20.644 10.7621 20.9656 8.89216 20.7551C7.02225 20.5447 5.24971 19.8107 3.77838 18.6377V19.3459C3.77838 19.7072 3.63486 20.0537 3.37939 20.3092C3.12391 20.5647 2.77742 20.7082 2.41613 20.7082C2.05484 20.7082 1.70835 20.5647 1.45287 20.3092C1.1974 20.0537 1.05388 19.7072 1.05388 19.3459V15.1033C1.05254 14.7637 1.17872 14.436 1.40745 14.185C1.63618 13.934 1.9508 13.778 2.28905 13.7478L6.57743 13.3581L6.58251 13.3615Z" fill="white"></path>
    </g>
    <defs>
      <clipPath id="clip0_1_169">
        <rect width="20" height="20.8201" fill="white"></rect>
      </clipPath>
    </defs>
  </symbol>
  <symbol fill="none" xmlns="http://www.w3.org/2000/svg" viewBox="0 0 40 37" id="icon-setting">
    <path fill-rule="evenodd" clip-rule="evenodd" d="M32.7133 29.7778H38.6596C39.3974 29.7778 39.9946 30.3751 39.9929 31.1112C39.9929 31.8473 39.3956 32.4445 38.6596 32.4445H32.7133C32.1213 34.7431 30.0397 36.4445 27.5556 36.4445C25.0714 36.4445 22.9915 34.7431 22.3978 32.4445H1.33333C0.597245 32.4445 0 31.8473 0 31.1112C0 30.3751 0.597245 29.7778 1.33333 29.7778H22.3978C22.9898 27.4792 25.0714 25.7778 27.5556 25.7778C30.0397 25.7778 32.1196 27.4792 32.7133 29.7778ZM24.8889 31.1111C24.8889 32.5816 26.0851 33.7778 27.5556 33.7778C29.0261 33.7778 30.2222 32.5816 30.2222 31.1111C30.2222 29.6406 29.0261 28.4444 27.5556 28.4444C26.0851 28.4444 24.8889 29.6406 24.8889 31.1111Z" fill="#A1B0CA"></path>
    <path fill-rule="evenodd" clip-rule="evenodd" d="M18.4911 16.8888H38.6667C39.4028 16.8888 40 17.486 40 18.2221C40 18.9582 39.4028 19.5555 38.6667 19.5555H18.4911C17.8991 21.8541 15.8175 23.5555 13.3333 23.5555C10.8492 23.5555 8.76929 21.8541 8.17556 19.5555H1.33333C0.597244 19.5555 0 18.9582 0 18.2221C0 17.486 0.597244 16.8888 1.33333 16.8888H8.17556C8.76756 14.5902 10.8492 12.8888 13.3333 12.8888C15.8175 12.8888 17.8974 14.5902 18.4911 16.8888ZM10.6667 18.2221C10.6667 19.6926 11.8629 20.8888 13.3334 20.8888C14.8039 20.8888 16 19.6926 16 18.2221C16 16.7516 14.8039 15.5554 13.3334 15.5554C11.8629 15.5554 10.6667 16.7516 10.6667 18.2221Z" fill="#A1B0CA"></path>
    <path fill-rule="evenodd" clip-rule="evenodd" d="M22.3978 6.66667H1.33333C0.597244 6.66667 0 6.06942 0 5.33333C0 4.59724 0.597244 4 1.33333 4H22.3978C22.9898 1.70138 25.0714 0 27.5556 0C30.0397 0 32.1213 1.70138 32.7133 4H38.6667C39.4028 4 40 4.59724 40 5.33333C40 6.06942 39.4028 6.66667 38.6667 6.66667H32.7133C32.1213 8.96529 30.0397 10.6667 27.5556 10.6667C25.0714 10.6667 22.9915 8.96529 22.3978 6.66667ZM30.2222 5.33329C30.2222 3.8628 29.0261 2.66663 27.5556 2.66663C26.0851 2.66663 24.8889 3.8628 24.8889 5.33329C24.8889 6.80378 26.0851 7.99996 27.5556 7.99996C29.0261 7.99996 30.2222 6.80378 30.2222 5.33329Z" fill="#A1B0CA"></path>
  </symbol>
  <symbol fill="none" xmlns="http://www.w3.org/2000/svg" viewBox="0 0 20 21" id="icon-sunrise">
    <g clip-path="url(#clip0_1_355)">
      <path d="M4.45868 9.01597L2.4104 9.86089L3.01391 11.5471L5.06219 10.7021C5.545 11.5471 6.26556 12.1469 6.98977 12.6297L6.14485 14.678L7.83103 15.2815L8.67595 13.2332C9.15875 13.3539 9.52086 13.3539 10 13.3539C10.4792 13.3539 10.9656 13.2332 11.3241 13.1125L12.169 15.1608L13.7345 14.5573L12.8896 12.509C13.7345 12.0262 14.3343 11.4264 14.8171 10.5814L16.8654 11.4264L17.4689 9.86089L15.4206 9.01597C15.662 8.17105 15.662 7.20909 15.4206 6.24348L17.5896 5.51926L16.9861 3.95379L14.9378 4.79871C14.455 3.95379 13.7345 3.35394 13.0103 2.87113L13.8552 0.702144L12.2897 0.0986328L11.4448 2.14691C10.962 2.02621 10.5999 2.02621 10.1207 2.02621C9.5172 2.02621 9.03805 2.02621 8.67595 2.14691L7.83103 0.0986328L6.14485 0.702144L6.98977 2.75043C6.26556 3.23323 5.6657 3.95379 5.18289 4.678L3.01391 3.83309L2.4104 5.51926L4.45868 6.36418C4.21728 7.20909 4.21728 8.17105 4.45868 9.01597ZM6.26556 6.12277C6.62767 5.15716 7.46892 4.3159 8.43454 3.95379C8.91735 3.71239 9.40016 3.59168 10 3.59168C11.5655 3.59168 13.0139 4.5573 13.7345 6.00207C14.0966 6.96769 14.0966 8.05035 13.7345 9.01597C13.3724 9.98159 12.5311 10.8228 11.5655 11.185C9.5172 12.0299 7.22752 11.0643 6.38626 9.01597C5.90345 8.17105 5.90345 7.08839 6.26556 6.12277Z" fill="white"></path>
      <path d="M0 19.0159L0.603511 20.5814C6.62765 18.0503 13.376 18.0503 19.4001 20.5814L20.0037 19.0159C13.6138 16.3642 6.38625 16.3642 0 19.0159Z" fill="white"></path>
    </g>
    <defs>
      <clipPath id="clip0_1_355">
        <rect width="20" height="20.4828" fill="white" transform="translate(0 0.0986328)"></rect>
      </clipPath>
    </defs>
  </symbol>
  <symbol fill="none" xmlns="http://www.w3.org/2000/svg" viewBox="0 0 20 13" id="icon-sunset">
    <g clip-path="url(#clip0_1_350)">
      <path d="M15.6627 9.25526C15.6627 8.89381 15.7831 8.65285 15.7831 8.2914C15.7831 7.68899 15.6627 6.9661 15.4217 6.48417L17.5904 5.52032L17.1084 3.83357L14.6988 4.79743C14.2169 4.19502 13.6145 3.59261 12.8916 3.23116L13.9759 0.701042L12.2892 0.0986328L11.2048 2.62875C10.8434 2.50827 10.4819 2.50827 10 2.50827C9.63855 2.50827 9.27711 2.50827 8.79518 2.62875L7.95181 0.0986328L6.26506 0.701042L7.3494 3.23116C6.62651 3.71309 6.0241 4.19502 5.54217 4.91791L3.13253 3.95405L2.53012 5.52032L4.69879 6.48417C4.45783 7.08658 4.33735 7.68899 4.33735 8.2914C4.33735 8.65285 4.45783 8.89381 4.45783 9.25526C2.89157 9.61671 1.44578 9.97815 0 10.5806L0.60241 12.1468C6.62651 9.6167 13.3735 9.6167 19.3976 12.1468L20 10.5806C18.6747 9.97815 17.2289 9.61671 15.6627 9.25526ZM6.26506 8.89381C6.26506 8.65285 6.14458 8.41189 6.14458 8.17092C6.14458 6.00225 7.95181 4.19502 10.1205 4.19502C12.2892 4.19502 14.0964 6.00225 14.0964 8.17092C14.0964 8.41189 14.0964 8.65285 13.9759 8.89381C11.4458 8.53237 8.79518 8.53237 6.26506 8.89381Z" fill="white"></path>
    </g>
    <defs>
      <clipPath id="clip0_1_350">
        <rect width="20" height="12.0482" fill="white" transform="translate(0 0.0986328)"></rect>
      </clipPath>
    </defs>
  </symbol>
  <symbol fill="none" xmlns="http://www.w3.org/2000/svg" viewBox="0 0 30 31" id="icon-weather">
    <path opacity="0.4" d="M23.9464 20.8308C23.8393 20.8308 23.7857 20.8308 23.6786 20.8308H7.125C7.07143 20.8308 6.96429 20.8308 6.91071 20.8308C6.21429 20.8308 5.625 20.2415 5.625 19.545C5.625 18.8486 6.21429 18.2593 6.91071 18.2593C7.5 18.2593 8.03571 18.6879 8.14286 19.2772L8.89286 18.9022C8.625 18.5272 8.51786 18.0986 8.51786 17.6165C8.51786 16.3308 9.58929 15.2593 10.875 15.2593C11.5179 15.2593 12.1607 15.5272 12.5893 16.0093C12.5893 15.9022 12.5893 15.7415 12.5893 15.6343C12.5893 13.2236 14.5179 11.295 16.9286 11.295C19.3393 11.295 21.2679 13.2236 21.2679 15.6343C21.2679 16.4379 21.0536 17.1879 20.6786 17.7772L21.6429 18.2058C21.8036 17.0808 22.7679 16.2236 23.9464 16.2236C25.2321 16.2236 26.25 17.2415 26.25 18.5272C26.25 19.8129 25.2321 20.8308 23.9464 20.8308Z" fill="white"></path>
    <path d="M6.85721 7.54504L4.23221 4.92004L3.58936 5.5629L6.21436 8.1879C6.42864 7.97362 6.64293 7.75933 6.85721 7.54504Z" fill="white"></path>
    <path d="M13.125 6.3129L14.0357 2.88433L13.1785 2.67004L12.2678 6.15219C12.5357 6.15219 12.8035 6.20576 13.125 6.3129Z" fill="white"></path>
    <path d="M15.9644 8.24147L18.643 5.5629L18.0001 4.92004L15.3215 7.59861C15.5358 7.8129 15.7501 8.02719 15.9644 8.24147Z" fill="white"></path>
    <path d="M4.98204 10.3307L1.39275 9.36646L1.17847 10.2236L4.76775 11.1879C4.82132 10.92 4.92847 10.5986 4.98204 10.3307Z" fill="white"></path>
    <path d="M9.85707 6.09869L8.89279 2.5094L8.03564 2.72369L8.99993 6.31297C9.32136 6.2594 9.58922 6.15226 9.85707 6.09869Z" fill="white"></path>
    <path d="M4.76775 13.7058L1.17847 14.6701L1.39275 15.5272L4.98204 14.563C4.92847 14.2415 4.82132 13.9737 4.76775 13.7058Z" fill="white"></path>
    <path d="M12.9643 9.20574C13.1786 9.31288 13.3929 9.47359 13.5536 9.63431C13.9821 9.42002 14.4107 9.20574 14.8929 9.04502C14.5179 8.67002 14.1429 8.29502 13.6607 8.02717C11.25 6.63431 8.08928 7.43788 6.69643 9.90217C5.73214 11.5629 5.83928 13.5986 6.75 15.0986C7.01786 14.67 7.33928 14.295 7.66071 13.9736C7.17857 12.9022 7.23214 11.67 7.82143 10.5986C8.89286 8.77717 11.1964 8.18788 12.9643 9.20574Z" fill="white"></path>
    <path d="M23.8929 14.563C23.5179 14.563 23.1965 14.6165 22.8215 14.7237C22.3929 11.8308 19.9286 9.58081 16.9286 9.58081C14.3036 9.58081 12.1072 11.2415 11.2501 13.5987C11.1429 13.5987 11.0358 13.5987 10.8751 13.5987C9.00007 13.5987 7.4465 14.8844 7.01793 16.6522H6.91078C5.25007 16.6522 3.96436 17.9915 3.96436 19.5987C3.96436 21.2058 5.25007 22.5451 6.91078 22.5451H23.7858H23.8929C26.0893 22.5451 27.9108 20.7772 27.9108 18.5272C27.9108 16.2772 26.1429 14.563 23.8929 14.563ZM23.9465 20.8308C23.8394 20.8308 23.7858 20.8308 23.6786 20.7772H7.12507C7.0715 20.7772 6.96435 20.7772 6.91078 20.7772C6.21435 20.7772 5.62507 20.188 5.62507 19.4915C5.62507 18.7951 6.21435 18.2058 6.91078 18.2058C7.50007 18.2058 8.03578 18.6344 8.14293 19.2237L8.89293 18.8487C8.62507 18.4737 8.51793 18.0451 8.51793 17.563C8.51793 16.2772 9.58935 15.2058 10.8751 15.2058C11.5179 15.2058 12.1608 15.4737 12.5894 15.9558C12.5894 15.8487 12.5894 15.688 12.5894 15.5808C12.5894 13.1701 14.5179 11.2415 16.9286 11.2415C19.3394 11.2415 21.2679 13.1701 21.2679 15.5808C21.2679 16.3844 21.0536 17.1344 20.6786 17.7237L21.6429 18.1522C21.8036 17.0272 22.7679 16.1701 23.9465 16.1701C25.2322 16.1701 26.2501 17.188 26.2501 18.4737C26.2501 19.7594 25.2322 20.8308 23.9465 20.8308Z" fill="white"></path>
  </symbol>
</svg>
