<svg width="162" height="28" viewBox="0 0 162 28" fill="none" xmlns="http://www.w3.org/2000/svg">
<path d="M19.8 3.42C19.74 3.42 19.53 3.37 19.17 3.27C18.83 3.15 18.51 3.09 18.21 3.09C17.25 3.09 16.16 3.14 14.94 3.24C13.72 3.34 12.71 3.48 11.91 3.66C11.97 4.62 12.02 6.14 12.06 8.22C12.12 10.28 12.15 12.45 12.15 14.73C12.15 15.69 12.13 16.76 12.09 17.94C12.07 19.12 12.03 19.85 11.97 20.13C11.93 20.35 11.79 20.53 11.55 20.67C11.33 20.81 11.1 20.88 10.86 20.88C10.72 20.88 10.6 20.82 10.5 20.7C10.4 20.58 10.35 20.44 10.35 20.28L10.38 19.23C10.5 17.67 10.56 15.75 10.56 13.47C10.56 11.83 10.54 9.96 10.5 7.86C10.46 5.74 10.42 4.43 10.38 3.93C6.38 4.37 3.71 4.78 2.37 5.16C2.13 5.24 1.86 5.28 1.56 5.28C1.2 5.28 0.85 5.15 0.51 4.89C0.17 4.63 0 4.35 0 4.05C0 3.85 0.06 3.71 0.18 3.63C0.3 3.53 0.45 3.48 0.63 3.48C1.77 3.42 2.73 3.36 3.51 3.3C5.29 3.14 7.53 2.89 10.23 2.55C10.23 1.93 10.24 1.49 10.26 1.23C10.3 0.969999 10.37 0.839998 10.47 0.839998C10.85 0.839998 11.19 0.989999 11.49 1.29C11.55 1.35 11.6 1.51 11.64 1.77C11.68 2.01 11.7 2.17 11.7 2.25C12.14 2.23 12.86 2.13 13.86 1.95C16.02 1.61 17.5 1.44 18.3 1.44C19.26 1.44 19.9 1.56 20.22 1.8C20.44 1.96 20.55 2.25 20.55 2.67C20.55 2.83 20.48 3 20.34 3.18C20.2 3.34 20.02 3.42 19.8 3.42ZM23.6723 2.67C23.3323 2.67 22.9823 2.53 22.6223 2.25C22.2823 1.97 22.1123 1.74 22.1123 1.56C22.1123 1.34 22.2123 1.13 22.4123 0.929999C22.6323 0.729999 22.8523 0.629999 23.0723 0.629999C23.3723 0.729999 23.6223 0.889999 23.8223 1.11C23.9823 1.27 24.1623 1.48 24.3623 1.74C24.5623 2 24.6623 2.16 24.6623 2.22C24.6623 2.52 24.3323 2.67 23.6723 2.67ZM24.5723 21.69C24.2923 21.67 24.0823 21.22 23.9423 20.34C23.8223 19.46 23.6923 17.79 23.5523 15.33C23.4723 13.71 23.4023 12.13 23.3423 10.59C23.2823 9.03 23.2423 7.83 23.2223 6.99C23.2223 6.77 23.2523 6.61 23.3123 6.51C23.3923 6.39 23.5323 6.33 23.7323 6.33C24.1923 6.33 24.4823 6.52 24.6023 6.9C24.7223 7.28 24.7823 8.01 24.7823 9.09L24.7523 12.63C24.7523 14.65 24.8123 16.27 24.9323 17.49C24.9323 17.55 25.0223 18.19 25.2023 19.41C25.3423 20.25 25.4123 20.81 25.4123 21.09C25.4123 21.29 25.3223 21.44 25.1423 21.54C24.9823 21.66 24.7923 21.71 24.5723 21.69ZM47.2755 21.57C46.9155 21.57 46.7355 21.39 46.7355 21.03C46.7355 16.99 46.6055 13.9 46.3455 11.76C46.0855 9.6 45.6355 8.52 44.9955 8.52C43.9155 8.52 42.3355 12.29 40.2555 19.83V19.86C40.2555 20.1 40.1755 20.31 40.0155 20.49C39.8555 20.65 39.6455 20.73 39.3855 20.73C39.0255 20.73 38.8455 20.55 38.8455 20.19C38.8455 19.39 38.8855 18.15 38.9655 16.47C39.0455 14.59 39.0855 13.11 39.0855 12.03C39.0855 10.53 39.0355 9.47 38.9355 8.85C38.8555 8.21 38.6655 7.89 38.3655 7.89C37.6855 7.89 36.8255 9.14 35.7855 11.64C34.7455 14.12 33.6555 17.05 32.5155 20.43L32.2455 21.21C32.1655 21.41 32.0455 21.58 31.8855 21.72C31.7455 21.86 31.5855 21.93 31.4055 21.93C31.1655 21.93 31.0055 21.91 30.9255 21.87C30.8455 21.83 30.7955 21.71 30.7755 21.51C30.6755 20.53 30.5955 19.22 30.5355 17.58C30.4955 17.16 30.4555 16.47 30.4155 15.51C30.2155 12.13 30.0355 9.85 29.8755 8.67C29.7155 7.47 29.6355 6.8 29.6355 6.66C29.6355 6.5 29.7155 6.31 29.8755 6.09C30.0355 5.87 30.1855 5.76 30.3255 5.76C30.6455 5.76 30.9055 5.99 31.1055 6.45C31.2055 6.67 31.3155 7.55 31.4355 9.09C31.5555 10.63 31.6555 12.54 31.7355 14.82L31.8855 19.41C32.9855 16.01 34.1255 12.93 35.3055 10.17C36.4855 7.39 37.5655 6 38.5455 6C39.2055 6 39.6555 6.48 39.8955 7.44C40.1355 8.4 40.2555 9.79 40.2555 11.61C40.2555 12.57 40.2355 13.95 40.1955 15.75L40.1655 17.13C40.9855 14.27 41.7955 11.87 42.5955 9.93C43.4155 7.99 44.2355 7.02 45.0555 7.02C47.1155 7.02 48.1455 11.58 48.1455 20.7C48.1455 20.94 48.0655 21.14 47.9055 21.3C47.7455 21.48 47.5355 21.57 47.2755 21.57ZM63.2363 13.8C63.2363 14.16 62.9663 14.95 62.4263 16.17C61.9063 17.39 61.1063 18.52 60.0263 19.56C58.9663 20.6 57.6563 21.12 56.0963 21.12C54.8163 21.12 53.7463 20.72 52.8863 19.92C52.0263 19.12 51.5963 17.89 51.5963 16.23C51.5963 14.67 51.9563 13.13 52.6763 11.61C53.3963 10.07 54.3363 8.82 55.4963 7.86C56.6563 6.88 57.8563 6.39 59.0963 6.39C59.8363 6.39 60.4563 6.56 60.9563 6.9C61.4763 7.22 61.7363 7.69 61.7363 8.31C61.7363 9.01 61.3363 9.69 60.5363 10.35C59.7563 11.01 58.7363 11.59 57.4763 12.09C56.2163 12.59 54.9163 12.95 53.5763 13.17C53.3363 14.09 53.2163 14.99 53.2163 15.87C53.2163 17.03 53.4863 17.93 54.0263 18.57C54.5863 19.21 55.3763 19.53 56.3963 19.53C57.9363 19.53 59.1863 18.98 60.1463 17.88C61.1063 16.78 61.9063 15.54 62.5463 14.16C62.5863 14.08 62.6563 13.93 62.7563 13.71C62.8563 13.47 62.9463 13.35 63.0263 13.35C63.1663 13.35 63.2363 13.5 63.2363 13.8ZM58.7363 7.62C57.9763 7.62 57.2463 7.87 56.5463 8.37C55.8463 8.87 55.2563 9.47 54.7763 10.17C54.3163 10.87 54.0163 11.49 53.8763 12.03C54.7963 11.93 55.7663 11.67 56.7863 11.25C57.8063 10.83 58.6563 10.37 59.3363 9.87C60.0363 9.37 60.3863 8.96 60.3863 8.64C60.3863 8.32 60.2163 8.07 59.8763 7.89C59.5563 7.71 59.1763 7.62 58.7363 7.62ZM75.2023 10.74C74.9623 12.5 74.8323 13.49 74.8123 13.71C74.5523 16.17 74.3623 18.05 74.2423 19.35C74.1423 20.63 74.0923 21.79 74.0923 22.83C74.0923 23.69 74.1523 24.37 74.2723 24.87C74.4123 25.37 74.5523 25.76 74.6923 26.04C74.8523 26.34 74.9323 26.52 74.9323 26.58C74.9323 26.76 74.7723 26.92 74.4523 27.06C74.1323 27.2 73.8023 27.27 73.4623 27.27C73.2023 27.27 72.9923 26.92 72.8323 26.22C72.6923 25.52 72.6223 24.43 72.6223 22.95C72.6223 21.83 72.7323 20.32 72.9523 18.42L73.4023 14.28C72.8623 15.32 72.1923 16.32 71.3923 17.28C70.6123 18.22 69.8023 18.69 68.9623 18.69C68.1823 18.69 67.4823 18.01 66.8623 16.65C66.2423 15.29 65.7523 13.75 65.3923 12.03C65.0523 10.31 64.8823 9.05 64.8823 8.25C64.8823 7.75 65.0323 7.5 65.3323 7.5C65.7723 7.5 66.0523 7.91 66.1723 8.73C66.9323 14.29 67.9923 17.07 69.3523 17.07C69.8923 17.07 70.3623 16.86 70.7623 16.44C71.1823 16 71.6723 15.33 72.2323 14.43C72.4923 14.01 72.7723 13.45 73.0723 12.75C73.3723 12.05 73.6023 11.47 73.7623 11.01L73.9723 7.98C74.0123 7.52 74.0723 7.2 74.1523 7.02C74.2323 6.82 74.3923 6.72 74.6323 6.72C74.8323 6.72 75.0323 6.84 75.2323 7.08C75.4323 7.3 75.5323 7.52 75.5323 7.74C75.5323 8.2 75.4223 9.2 75.2023 10.74ZM104.15 12.66C104.05 13.74 103.86 14.93 103.58 16.23C103.3 17.53 102.96 18.65 102.56 19.59C102.16 20.51 101.75 20.97 101.33 20.97C101.07 20.97 100.77 20.52 100.43 19.62C100.09 18.72 99.6497 17.4 99.1097 15.66L98.5997 13.98C98.2397 12.82 97.8397 11.65 97.3997 10.47C96.9597 9.27 96.6197 8.42 96.3797 7.92L95.0897 12.33C93.9097 16.37 93.0497 19.14 92.5097 20.64C92.4897 20.68 92.4297 20.82 92.3297 21.06C92.2497 21.32 92.0997 21.51 91.8797 21.63C91.6597 21.77 91.3697 21.84 91.0097 21.84C90.9297 21.84 90.7597 21.32 90.4997 20.28C90.2597 19.24 90.0097 18.09 89.7497 16.83C89.0897 13.97 88.7397 12.46 88.6997 12.3C88.2197 10.34 87.8197 8.87 87.4997 7.89C87.1997 6.91 86.9297 6.32 86.6897 6.12C86.3497 5.86 86.1797 5.58 86.1797 5.28C86.1797 5.14 86.2797 4.99 86.4797 4.83C86.6997 4.65 86.9497 4.56 87.2297 4.56C87.4697 4.56 87.6597 4.58 87.7997 4.62C87.9397 4.64 88.0497 4.72 88.1297 4.86C88.4097 5.32 88.9497 7.26 89.7497 10.68C89.8297 10.94 89.9297 11.33 90.0497 11.85C90.4697 13.59 90.8197 15.09 91.0997 16.35C91.2597 16.99 91.3897 17.57 91.4897 18.09C91.6097 18.59 91.7097 18.97 91.7897 19.23C91.8097 19.05 92.0097 18.35 92.3897 17.13C93.0497 15.09 93.5597 13.36 93.9197 11.94C94.2997 10.5 94.6497 9.31 94.9697 8.37C95.2897 7.41 95.5397 6.81 95.7197 6.57C95.8397 6.43 95.9997 6.31 96.1997 6.21C96.4197 6.09 96.6297 6.03 96.8297 6.03C96.9697 6.03 97.0797 6.08 97.1597 6.18C97.2397 6.26 97.3097 6.37 97.3697 6.51C97.4297 6.65 97.4897 6.77 97.5497 6.87C97.7497 7.27 98.0697 8.11 98.5097 9.39C98.9697 10.67 99.3797 11.93 99.7397 13.17L100.16 14.55C100.8 16.77 101.27 18.25 101.57 18.99C102.27 17.59 102.75 15.25 103.01 11.97C103.15 10.73 103.22 8.98 103.22 6.72L103.19 3.69C103.19 3.43 103.22 3.25 103.28 3.15C103.34 3.03 103.48 2.97 103.7 2.97C103.94 2.97 104.17 3.05 104.39 3.21C104.61 3.35 104.72 3.51 104.72 3.69C104.72 5.13 104.66 6.67 104.54 8.31C104.42 9.95 104.29 11.4 104.15 12.66ZM109.219 2.67C108.879 2.67 108.529 2.53 108.169 2.25C107.829 1.97 107.659 1.74 107.659 1.56C107.659 1.34 107.759 1.13 107.959 0.929999C108.179 0.729999 108.399 0.629999 108.619 0.629999C108.919 0.729999 109.169 0.889999 109.369 1.11C109.529 1.27 109.709 1.48 109.909 1.74C110.109 2 110.209 2.16 110.209 2.22C110.209 2.52 109.879 2.67 109.219 2.67ZM110.119 21.69C109.839 21.67 109.629 21.22 109.489 20.34C109.369 19.46 109.239 17.79 109.099 15.33C109.019 13.71 108.949 12.13 108.889 10.59C108.829 9.03 108.789 7.83 108.769 6.99C108.769 6.77 108.799 6.61 108.859 6.51C108.939 6.39 109.079 6.33 109.279 6.33C109.739 6.33 110.029 6.52 110.149 6.9C110.269 7.28 110.329 8.01 110.329 9.09L110.299 12.63C110.299 14.65 110.359 16.27 110.479 17.49C110.479 17.55 110.569 18.19 110.749 19.41C110.889 20.25 110.959 20.81 110.959 21.09C110.959 21.29 110.869 21.44 110.689 21.54C110.529 21.66 110.339 21.71 110.119 21.69ZM132.822 21.57C132.462 21.57 132.282 21.39 132.282 21.03C132.282 16.99 132.152 13.9 131.892 11.76C131.632 9.6 131.182 8.52 130.542 8.52C129.462 8.52 127.882 12.29 125.802 19.83V19.86C125.802 20.1 125.722 20.31 125.562 20.49C125.402 20.65 125.192 20.73 124.932 20.73C124.572 20.73 124.392 20.55 124.392 20.19C124.392 19.39 124.432 18.15 124.512 16.47C124.592 14.59 124.632 13.11 124.632 12.03C124.632 10.53 124.582 9.47 124.482 8.85C124.402 8.21 124.212 7.89 123.912 7.89C123.232 7.89 122.372 9.14 121.332 11.64C120.292 14.12 119.202 17.05 118.062 20.43L117.792 21.21C117.712 21.41 117.592 21.58 117.432 21.72C117.292 21.86 117.132 21.93 116.952 21.93C116.712 21.93 116.552 21.91 116.472 21.87C116.392 21.83 116.342 21.71 116.322 21.51C116.222 20.53 116.142 19.22 116.082 17.58C116.042 17.16 116.002 16.47 115.962 15.51C115.762 12.13 115.582 9.85 115.422 8.67C115.262 7.47 115.182 6.8 115.182 6.66C115.182 6.5 115.262 6.31 115.422 6.09C115.582 5.87 115.732 5.76 115.872 5.76C116.192 5.76 116.452 5.99 116.652 6.45C116.752 6.67 116.862 7.55 116.982 9.09C117.102 10.63 117.202 12.54 117.282 14.82L117.432 19.41C118.532 16.01 119.672 12.93 120.852 10.17C122.032 7.39 123.112 6 124.092 6C124.752 6 125.202 6.48 125.442 7.44C125.682 8.4 125.802 9.79 125.802 11.61C125.802 12.57 125.782 13.95 125.742 15.75L125.712 17.13C126.532 14.27 127.342 11.87 128.142 9.93C128.962 7.99 129.782 7.02 130.602 7.02C132.662 7.02 133.692 11.58 133.692 20.7C133.692 20.94 133.612 21.14 133.452 21.3C133.292 21.48 133.082 21.57 132.822 21.57ZM148.783 13.8C148.783 14.16 148.513 14.95 147.973 16.17C147.453 17.39 146.653 18.52 145.573 19.56C144.513 20.6 143.203 21.12 141.643 21.12C140.363 21.12 139.293 20.72 138.433 19.92C137.573 19.12 137.143 17.89 137.143 16.23C137.143 14.67 137.503 13.13 138.223 11.61C138.943 10.07 139.883 8.82 141.043 7.86C142.203 6.88 143.403 6.39 144.643 6.39C145.383 6.39 146.003 6.56 146.503 6.9C147.023 7.22 147.283 7.69 147.283 8.31C147.283 9.01 146.883 9.69 146.083 10.35C145.303 11.01 144.283 11.59 143.023 12.09C141.763 12.59 140.463 12.95 139.123 13.17C138.883 14.09 138.763 14.99 138.763 15.87C138.763 17.03 139.033 17.93 139.573 18.57C140.133 19.21 140.923 19.53 141.943 19.53C143.483 19.53 144.733 18.98 145.693 17.88C146.653 16.78 147.453 15.54 148.093 14.16C148.133 14.08 148.203 13.93 148.303 13.71C148.403 13.47 148.493 13.35 148.573 13.35C148.713 13.35 148.783 13.5 148.783 13.8ZM144.283 7.62C143.523 7.62 142.793 7.87 142.093 8.37C141.393 8.87 140.803 9.47 140.323 10.17C139.863 10.87 139.563 11.49 139.423 12.03C140.343 11.93 141.313 11.67 142.333 11.25C143.353 10.83 144.203 10.37 144.883 9.87C145.583 9.37 145.933 8.96 145.933 8.64C145.933 8.32 145.763 8.07 145.423 7.89C145.103 7.71 144.723 7.62 144.283 7.62ZM160.749 10.74C160.509 12.5 160.379 13.49 160.359 13.71C160.099 16.17 159.909 18.05 159.789 19.35C159.689 20.63 159.639 21.79 159.639 22.83C159.639 23.69 159.699 24.37 159.819 24.87C159.959 25.37 160.099 25.76 160.239 26.04C160.399 26.34 160.479 26.52 160.479 26.58C160.479 26.76 160.319 26.92 159.999 27.06C159.679 27.2 159.349 27.27 159.009 27.27C158.749 27.27 158.539 26.92 158.379 26.22C158.239 25.52 158.169 24.43 158.169 22.95C158.169 21.83 158.279 20.32 158.499 18.42L158.949 14.28C158.409 15.32 157.739 16.32 156.939 17.28C156.159 18.22 155.349 18.69 154.509 18.69C153.729 18.69 153.029 18.01 152.409 16.65C151.789 15.29 151.299 13.75 150.939 12.03C150.599 10.31 150.429 9.05 150.429 8.25C150.429 7.75 150.579 7.5 150.879 7.5C151.319 7.5 151.599 7.91 151.719 8.73C152.479 14.29 153.539 17.07 154.899 17.07C155.439 17.07 155.909 16.86 156.309 16.44C156.729 16 157.219 15.33 157.779 14.43C158.039 14.01 158.319 13.45 158.619 12.75C158.919 12.05 159.149 11.47 159.309 11.01L159.519 7.98C159.559 7.52 159.619 7.2 159.699 7.02C159.779 6.82 159.939 6.72 160.179 6.72C160.379 6.72 160.579 6.84 160.779 7.08C160.979 7.3 161.079 7.52 161.079 7.74C161.079 8.2 160.969 9.2 160.749 10.74Z" fill="black"/>
</svg>
