<svg width="30" height="31" viewBox="0 0 30 31" fill="none" xmlns="http://www.w3.org/2000/svg">
<g clip-path="url(#clip0_1_301)">
<path d="M23.4187 28.6827H1.8562V5.24524H15.0281L16.9237 3.41899L16.875 3.37024H1.8562C0.820264 3.37024 -0.0187988 4.21024 -0.0187988 5.24524V28.6827C-0.0187988 29.7187 0.820264 30.5577 1.8562 30.5577H23.4187C24.4546 30.5577 25.2937 29.7187 25.2937 28.6827V14.9521L23.4187 16.7418V28.6818V28.6827ZM28.5421 1.76336C27.6965 0.952426 26.7628 0.540863 25.7662 0.540863C24.2071 0.540863 23.07 1.54774 22.7606 1.85618C22.3218 2.2893 9.89433 14.699 9.89433 14.699C9.79683 14.7984 9.72558 14.9193 9.68902 15.0552C9.35245 16.2984 7.66495 21.8221 7.64902 21.8774C7.56183 22.1606 7.63964 22.469 7.8487 22.6752C7.99776 22.8252 8.19839 22.9049 8.40277 22.9049C8.48339 22.9049 8.56402 22.8937 8.6437 22.8684C8.70089 22.8496 14.4009 21.0065 15.3384 20.7262C15.4621 20.6896 15.5746 20.6231 15.6675 20.5321C16.259 19.9481 27.6825 8.70274 28.6068 7.74743C29.5631 6.76118 30.0375 5.73555 30.0196 4.69774C30.0018 3.67211 29.504 2.68493 28.5431 1.7643L28.5421 1.76336ZM27.2587 6.44149C26.7375 6.97961 22.6518 11.0165 15.1162 18.4396L14.5396 19.0087C13.6762 19.2759 11.6071 19.9406 10.0434 20.4449C10.5468 18.7827 11.1506 16.7737 11.4206 15.824C13.0303 14.2162 23.6784 3.58493 24.0825 3.18649C24.1612 3.10774 24.8803 2.4168 25.7653 2.4168C26.2678 2.4168 26.7525 2.64555 27.2437 3.11805C27.8315 3.68243 28.1343 4.22336 28.1428 4.73055C28.1521 5.2518 27.854 5.82836 27.2587 6.44336V6.44149Z" fill="white"/>
</g>
<defs>
<clipPath id="clip0_1_301">
<rect width="30" height="30" fill="white" transform="translate(0 0.549286)"/>
</clipPath>
</defs>
</svg>
