<svg width="20" height="20" viewBox="0 0 20 20" fill="none" xmlns="http://www.w3.org/2000/svg">
<path fill-rule="evenodd" clip-rule="evenodd" d="M10 0C9.68414 0 9.42857 0.25558 9.42857 0.571429V9.42857H0.571429C0.255571 9.42857 0 9.68415 0 10C0 10.3158 0.25558 10.5714 0.571429 10.5714H9.42857V19.4286C9.42857 19.7444 9.68415 20 10 20C10.3158 20 10.5714 19.7444 10.5714 19.4286V10.5714H19.4286C19.7444 10.5714 20 10.3158 20 10C20 9.68415 19.7444 9.42857 19.4286 9.42857H10.5714V0.571429C10.5714 0.255571 10.3158 0 10 0Z" fill="white"/>
</svg>
