<svg width="20" height="13" viewBox="0 0 20 13" fill="none" xmlns="http://www.w3.org/2000/svg">
<g clip-path="url(#clip0_1_350)">
<path d="M15.6627 9.25526C15.6627 8.89381 15.7831 8.65285 15.7831 8.2914C15.7831 7.68899 15.6627 6.9661 15.4217 6.48417L17.5904 5.52032L17.1084 3.83357L14.6988 4.79743C14.2169 4.19502 13.6145 3.59261 12.8916 3.23116L13.9759 0.701042L12.2892 0.0986328L11.2048 2.62875C10.8434 2.50827 10.4819 2.50827 10 2.50827C9.63855 2.50827 9.27711 2.50827 8.79518 2.62875L7.95181 0.0986328L6.26506 0.701042L7.3494 3.23116C6.62651 3.71309 6.0241 4.19502 5.54217 4.91791L3.13253 3.95405L2.53012 5.52032L4.69879 6.48417C4.45783 7.08658 4.33735 7.68899 4.33735 8.2914C4.33735 8.65285 4.45783 8.89381 4.45783 9.25526C2.89157 9.61671 1.44578 9.97815 0 10.5806L0.60241 12.1468C6.62651 9.6167 13.3735 9.6167 19.3976 12.1468L20 10.5806C18.6747 9.97815 17.2289 9.61671 15.6627 9.25526ZM6.26506 8.89381C6.26506 8.65285 6.14458 8.41189 6.14458 8.17092C6.14458 6.00225 7.95181 4.19502 10.1205 4.19502C12.2892 4.19502 14.0964 6.00225 14.0964 8.17092C14.0964 8.41189 14.0964 8.65285 13.9759 8.89381C11.4458 8.53237 8.79518 8.53237 6.26506 8.89381Z" fill="white"/>
</g>
<defs>
<clipPath id="clip0_1_350">
<rect width="20" height="12.0482" fill="white" transform="translate(0 0.0986328)"/>
</clipPath>
</defs>
</svg>
