<svg width="512" height="512" viewBox="0 0 512 512" fill="none" xmlns="http://www.w3.org/2000/svg">
<circle cx="256" cy="256" r="241" fill="white" stroke="black" stroke-width="30"/>
<path d="M162 362L173.16 346.477C194.137 317.298 227.878 300 263.815 300V300V300C294.846 300 324.084 314.54 342.81 339.284L360 362" stroke="black" stroke-width="28" stroke-linecap="round"/>
<circle cx="196" cy="198" r="21" fill="black"/>
<circle cx="320" cy="198" r="21" fill="black"/>
<rect x="137.272" y="172.74" width="74.6758" height="23.8607" rx="11.9303" transform="rotate(-31.0057 137.272 172.74)" fill="black"/>
<rect x="137.272" y="172.74" width="74.6758" height="23.8607" rx="11.9303" transform="rotate(-31.0057 137.272 172.74)" fill="black"/>
<rect x="137.272" y="172.74" width="74.6758" height="23.8607" rx="11.9303" transform="rotate(-31.0057 137.272 172.74)" fill="black"/>
<rect x="137.272" y="172.74" width="74.6758" height="23.8607" rx="11.9303" transform="rotate(-31.0057 137.272 172.74)" fill="black"/>
<rect x="283.801" y="98.5593" width="74.6758" height="23.8607" rx="11.9303" transform="rotate(5.8396 283.801 98.5593)" fill="black"/>
<rect x="283.801" y="98.5593" width="74.6758" height="23.8607" rx="11.9303" transform="rotate(5.8396 283.801 98.5593)" fill="black"/>
<rect x="283.801" y="98.5593" width="74.6758" height="23.8607" rx="11.9303" transform="rotate(5.8396 283.801 98.5593)" fill="black"/>
<rect x="283.801" y="98.5593" width="74.6758" height="23.8607" rx="11.9303" transform="rotate(5.8396 283.801 98.5593)" fill="black"/>
</svg>
